<mxfile host="app.diagrams.net" modified="2023-07-16T03:48:19.031Z" agent="Mozilla/5.0 (X11; Ubuntu; Ubuntu; Linux x86_64; rv:107.0) Gecko/20100101 Firefox/107.0" etag="zZcW-GzyU7TCmpR2b2Sq" version="21.6.2" type="github">
  <diagram name="Page-1" id="mY1YBlUvBprySwaXG3Ng">
    <mxGraphModel dx="1730" dy="469" grid="1" gridSize="10" guides="1" tooltips="1" connect="1" arrows="1" fold="1" page="1" pageScale="1" pageWidth="850" pageHeight="1100" math="0" shadow="0">
      <root>
        <mxCell id="0" />
        <mxCell id="1" parent="0" />
        <mxCell id="SRHJgwt1Rb7w8BrOkFrB-18" value="" style="rounded=0;whiteSpace=wrap;html=1;" vertex="1" parent="1">
          <mxGeometry x="200" y="610" width="160" height="350" as="geometry" />
        </mxCell>
        <mxCell id="SRHJgwt1Rb7w8BrOkFrB-25" style="edgeStyle=orthogonalEdgeStyle;rounded=0;orthogonalLoop=1;jettySize=auto;html=1;exitX=1;exitY=0.5;exitDx=0;exitDy=0;" edge="1" parent="1" source="SRHJgwt1Rb7w8BrOkFrB-20">
          <mxGeometry relative="1" as="geometry">
            <mxPoint x="510" y="660" as="targetPoint" />
          </mxGeometry>
        </mxCell>
        <mxCell id="SRHJgwt1Rb7w8BrOkFrB-20" value="" style="rounded=0;whiteSpace=wrap;html=1;fillColor=#fff2cc;strokeColor=#d6b656;" vertex="1" parent="1">
          <mxGeometry x="220" y="630" width="120" height="60" as="geometry" />
        </mxCell>
        <mxCell id="SRHJgwt1Rb7w8BrOkFrB-19" value="&lt;font style=&quot;font-size: 18px;&quot;&gt;Num &lt;br&gt;is cololr&lt;/font&gt;" style="text;html=1;strokeColor=none;fillColor=none;align=center;verticalAlign=middle;whiteSpace=wrap;rounded=0;" vertex="1" parent="1">
          <mxGeometry x="225" y="640" width="110" height="40" as="geometry" />
        </mxCell>
        <mxCell id="SRHJgwt1Rb7w8BrOkFrB-35" style="edgeStyle=orthogonalEdgeStyle;rounded=0;orthogonalLoop=1;jettySize=auto;html=1;exitX=1;exitY=0.5;exitDx=0;exitDy=0;" edge="1" parent="1" source="SRHJgwt1Rb7w8BrOkFrB-21">
          <mxGeometry relative="1" as="geometry">
            <mxPoint x="510" y="840" as="targetPoint" />
          </mxGeometry>
        </mxCell>
        <mxCell id="SRHJgwt1Rb7w8BrOkFrB-21" value="" style="rounded=0;whiteSpace=wrap;html=1;fillColor=#fff2cc;strokeColor=#d6b656;" vertex="1" parent="1">
          <mxGeometry x="220" y="810" width="120" height="60" as="geometry" />
        </mxCell>
        <mxCell id="SRHJgwt1Rb7w8BrOkFrB-22" value="&lt;font style=&quot;font-size: 18px;&quot;&gt;Num&lt;br&gt;is shape&lt;/font&gt;" style="text;html=1;strokeColor=none;fillColor=none;align=center;verticalAlign=middle;whiteSpace=wrap;rounded=0;" vertex="1" parent="1">
          <mxGeometry x="235" y="822.5" width="90" height="35" as="geometry" />
        </mxCell>
        <mxCell id="SRHJgwt1Rb7w8BrOkFrB-23" value="" style="rounded=0;whiteSpace=wrap;html=1;fillColor=#fff2cc;strokeColor=#d6b656;" vertex="1" parent="1">
          <mxGeometry x="220" y="720" width="120" height="60" as="geometry" />
        </mxCell>
        <mxCell id="SRHJgwt1Rb7w8BrOkFrB-32" style="edgeStyle=orthogonalEdgeStyle;rounded=0;orthogonalLoop=1;jettySize=auto;html=1;exitX=0;exitY=0.5;exitDx=0;exitDy=0;entryX=1;entryY=0.333;entryDx=0;entryDy=0;entryPerimeter=0;" edge="1" parent="1" source="SRHJgwt1Rb7w8BrOkFrB-24" target="SRHJgwt1Rb7w8BrOkFrB-31">
          <mxGeometry relative="1" as="geometry" />
        </mxCell>
        <mxCell id="SRHJgwt1Rb7w8BrOkFrB-24" value="Boolean&lt;br&gt;Big or small" style="text;html=1;strokeColor=none;fillColor=none;align=center;verticalAlign=middle;whiteSpace=wrap;rounded=0;" vertex="1" parent="1">
          <mxGeometry x="225" y="730" width="110" height="40" as="geometry" />
        </mxCell>
        <mxCell id="SRHJgwt1Rb7w8BrOkFrB-26" value="" style="rounded=0;whiteSpace=wrap;html=1;" vertex="1" parent="1">
          <mxGeometry x="515" y="520" width="115" height="220" as="geometry" />
        </mxCell>
        <mxCell id="SRHJgwt1Rb7w8BrOkFrB-28" value="&lt;div&gt;&lt;b&gt;List of Colors&lt;/b&gt;&lt;br&gt;&lt;/div&gt;&lt;div&gt;1 = red&lt;/div&gt;&lt;div&gt;&lt;br&gt;&lt;/div&gt;&lt;div&gt;2 = blue&lt;/div&gt;&lt;div&gt;&lt;br&gt;&lt;/div&gt;&lt;div&gt;3 = yellow&lt;/div&gt;&lt;div&gt;&lt;br&gt;&lt;/div&gt;&lt;div&gt;4 = purple&lt;/div&gt;&lt;div&gt;&lt;br&gt;&lt;/div&gt;&lt;div&gt;5 = green&lt;br&gt;&lt;/div&gt;&lt;div&gt;&lt;br&gt;&lt;/div&gt;" style="text;html=1;strokeColor=none;fillColor=none;align=center;verticalAlign=middle;whiteSpace=wrap;rounded=0;" vertex="1" parent="1">
          <mxGeometry x="520" y="545" width="110" height="170" as="geometry" />
        </mxCell>
        <mxCell id="SRHJgwt1Rb7w8BrOkFrB-29" value="&lt;u&gt;&lt;font style=&quot;font-size: 48px;&quot;&gt;Piece object &lt;/font&gt;&lt;/u&gt;" style="text;html=1;strokeColor=none;fillColor=none;align=center;verticalAlign=middle;whiteSpace=wrap;rounded=0;" vertex="1" parent="1">
          <mxGeometry x="-110" y="440" width="360" height="50" as="geometry" />
        </mxCell>
        <mxCell id="SRHJgwt1Rb7w8BrOkFrB-31" value="&lt;div&gt;&lt;b&gt;Size of piece&lt;/b&gt;&lt;br&gt;&lt;/div&gt;&lt;div&gt;True = Big piece&lt;/div&gt;&lt;div&gt;False = Small piece&lt;br&gt;&lt;/div&gt;" style="rounded=0;whiteSpace=wrap;html=1;" vertex="1" parent="1">
          <mxGeometry x="-60" y="700" width="120" height="150" as="geometry" />
        </mxCell>
        <mxCell id="SRHJgwt1Rb7w8BrOkFrB-33" value="" style="rounded=0;whiteSpace=wrap;html=1;" vertex="1" parent="1">
          <mxGeometry x="515" y="790" width="115" height="220" as="geometry" />
        </mxCell>
        <mxCell id="SRHJgwt1Rb7w8BrOkFrB-34" value="&lt;div&gt;&lt;b&gt;List of Shapes&lt;/b&gt;&lt;br&gt;&lt;/div&gt;&lt;div&gt;1 = circle&lt;/div&gt;&lt;div&gt;&lt;br&gt;&lt;/div&gt;&lt;div&gt;2 = square&lt;/div&gt;&lt;div&gt;&lt;br&gt;&lt;/div&gt;&lt;div&gt;3 = traingle&lt;/div&gt;&lt;div&gt;&lt;br&gt;&lt;/div&gt;&lt;div&gt;&lt;br&gt;&lt;/div&gt;" style="text;html=1;strokeColor=none;fillColor=none;align=center;verticalAlign=middle;whiteSpace=wrap;rounded=0;" vertex="1" parent="1">
          <mxGeometry x="520" y="800" width="110" height="180" as="geometry" />
        </mxCell>
        <mxCell id="SRHJgwt1Rb7w8BrOkFrB-45" style="edgeStyle=orthogonalEdgeStyle;rounded=0;orthogonalLoop=1;jettySize=auto;html=1;entryX=1.018;entryY=0.3;entryDx=0;entryDy=0;entryPerimeter=0;" edge="1" parent="1" source="SRHJgwt1Rb7w8BrOkFrB-37" target="SRHJgwt1Rb7w8BrOkFrB-34">
          <mxGeometry relative="1" as="geometry" />
        </mxCell>
        <mxCell id="SRHJgwt1Rb7w8BrOkFrB-37" value="Is it flat = false" style="rounded=1;whiteSpace=wrap;html=1;" vertex="1" parent="1">
          <mxGeometry x="700" y="752.5" width="120" height="70" as="geometry" />
        </mxCell>
        <mxCell id="SRHJgwt1Rb7w8BrOkFrB-43" style="edgeStyle=orthogonalEdgeStyle;rounded=0;orthogonalLoop=1;jettySize=auto;html=1;exitX=0;exitY=0.5;exitDx=0;exitDy=0;entryX=1.009;entryY=0.467;entryDx=0;entryDy=0;entryPerimeter=0;" edge="1" parent="1" source="SRHJgwt1Rb7w8BrOkFrB-38" target="SRHJgwt1Rb7w8BrOkFrB-34">
          <mxGeometry relative="1" as="geometry" />
        </mxCell>
        <mxCell id="SRHJgwt1Rb7w8BrOkFrB-38" value="Is it flat = true" style="rounded=1;whiteSpace=wrap;html=1;" vertex="1" parent="1">
          <mxGeometry x="700" y="850" width="120" height="70" as="geometry" />
        </mxCell>
        <mxCell id="SRHJgwt1Rb7w8BrOkFrB-41" style="edgeStyle=orthogonalEdgeStyle;rounded=0;orthogonalLoop=1;jettySize=auto;html=1;exitX=0;exitY=0.5;exitDx=0;exitDy=0;entryX=0.991;entryY=0.659;entryDx=0;entryDy=0;entryPerimeter=0;" edge="1" parent="1" source="SRHJgwt1Rb7w8BrOkFrB-39" target="SRHJgwt1Rb7w8BrOkFrB-34">
          <mxGeometry relative="1" as="geometry" />
        </mxCell>
        <mxCell id="SRHJgwt1Rb7w8BrOkFrB-39" value="Is it flat = false" style="rounded=1;whiteSpace=wrap;html=1;" vertex="1" parent="1">
          <mxGeometry x="700" y="940" width="120" height="70" as="geometry" />
        </mxCell>
      </root>
    </mxGraphModel>
  </diagram>
</mxfile>
